# xmcd CD database file
# Copyright (C) 1993-1998 Ti Kan
# 
# Track frame offsets:
#     150
#     19185
#     40727
#     58650
#     80970
#     102152
#     119830
#     141162
#     161332
#     179755
#     200870
# 
# Disc length: 2764 seconds
# 
# Revision: 1
# Processed by: cddbd v1.4b41PL1 Copyright (c) Steve Scherf et al.
# Submitted via: DiscPlay 4.0.4
# 
DISCID=a50aca0b
DTITLE=Dream Of Eden - Wonderful Thing
DYEAR=1900
DGENRE=
TTITLE0=Wonderful Thing
TTITLE1=Blessed Are The Hungry
TTITLE2=Under Your Sky
TTITLE3=For You
TTITLE4=Darkest Hour
TTITLE5=What Do You Want From Me?
TTITLE6=Regina
TTITLE7=Eye Of The World
TTITLE8=This Is The Moment
TTITLE9=You Paid The Price
TTITLE10=Softly And Tenderly
EXTD=
EXTT0=
EXTT1=
EXTT2=
EXTT3=
EXTT4=
EXTT5=
EXTT6=
EXTT7=
EXTT8=
EXTT9=
EXTT10=
PLAYORDER=
